<?xml version="1.0" standalone="no"?>
<!DOCTYPE svg PUBLIC "-//W3C//DTD SVG 20010904//EN"
 "http://www.w3.org/TR/2001/REC-SVG-20010904/DTD/svg10.dtd">
<svg version="1.0" xmlns="http://www.w3.org/2000/svg"
 width="200.000000pt" height="200.000000pt" viewBox="0 0 200.000000 200.000000"
 preserveAspectRatio="xMidYMid meet">
<metadata>
Created by potrace 1.11, written by Peter Selinger 2001-2013
</metadata>
<g transform="translate(0.000000,200.000000) scale(0.100000,-0.100000)"
fill="#000000" stroke="none">
<path d="M1028 1767 c-31 -13 -74 -38 -96 -56 -74 -58 -132 -174 -132 -264 0
-36 -2 -39 -22 -33 -87 23 -150 29 -215 18 -306 -51 -474 -372 -338 -648 101
-205 345 -304 557 -224 56 21 148 76 148 89 0 4 -20 13 -45 20 -107 32 -200
126 -235 239 -12 37 -28 77 -36 90 -22 33 -79 55 -122 47 l-35 -6 6 36 c8 48
30 81 70 105 54 34 212 26 309 -15 12 -5 18 1 22 23 4 16 22 52 41 80 21 33
30 54 23 58 -13 8 -38 -24 -68 -84 -21 -40 -24 -43 -53 -36 -44 9 -47 12 -47
42 1 74 94 223 179 286 l46 35 11 -71 10 -70 -45 -45 -46 -45 49 33 c66 43
190 95 265 110 59 11 174 6 199 -10 9 -6 7 -12 -7 -26 -20 -17 -20 -18 35 -51
31 -19 59 -34 61 -34 3 0 3 39 1 88 -6 107 -31 166 -103 237 -73 73 -130 98
-240 102 -78 3 -98 0 -147 -20z"/>
<path d="M1623 604 c-37 -16 -42 -29 -14 -37 23 -6 28 -60 21 -217 -5 -100 -6
-105 -27 -108 -13 -2 -23 -10 -23 -18 0 -12 14 -14 73 -12 56 2 72 6 72 18 0
8 -9 16 -20 18 -11 2 -23 7 -27 10 -3 4 -3 84 1 177 8 196 8 197 -56 169z"/>
<path d="M106 561 c5 -5 20 -11 34 -13 l25 -3 0 -150 0 -150 -29 -5 c-16 -3
-31 -11 -34 -17 -3 -10 33 -13 156 -13 133 0 163 3 176 16 18 17 20 42 6 64
-8 12 -14 10 -37 -17 -25 -28 -36 -32 -100 -38 -39 -3 -73 -2 -76 2 -2 4 -8
38 -12 76 l-7 67 46 0 c44 0 47 -2 53 -30 7 -38 29 -39 35 -2 6 41 -3 122 -13
122 -5 0 -12 -13 -15 -30 -6 -28 -10 -30 -49 -30 -42 0 -43 1 -46 38 -2 20 -3
52 -1 70 l3 32 59 0 c35 0 63 -5 69 -12 6 -7 22 -26 35 -43 l25 -30 1 53 0 52
-157 0 c-95 0 -153 -4 -147 -9z"/>
<path d="M507 442 c-25 -26 -26 -30 -11 -43 13 -11 15 -26 11 -78 -4 -48 -1
-71 10 -88 18 -27 58 -30 91 -7 33 23 27 36 -13 28 -39 -7 -47 2 -48 59 -1 75
2 87 26 87 12 0 28 4 36 9 11 7 9 11 -9 21 -12 6 -24 9 -27 6 -3 -3 -13 4 -22
15 -16 20 -16 20 -44 -9z"/>
<path d="M1196 442 c-22 -13 -30 -14 -33 -4 -6 16 -33 15 -58 -3 -17 -14 -18
-17 -3 -31 12 -12 14 -30 11 -82 -3 -37 -12 -74 -19 -83 -22 -25 -17 -29 41
-29 30 0 55 2 55 5 0 3 -7 17 -16 31 -19 28 -14 124 7 150 15 18 43 18 59 -1
15 -18 8 -141 -9 -158 -21 -21 -11 -27 44 -27 57 0 70 11 35 30 -19 10 -20 17
-14 88 6 67 4 80 -12 99 -27 30 -54 35 -88 15z"/>
<path d="M696 424 c-51 -52 -51 -132 0 -185 20 -21 37 -29 61 -29 39 0 83 25
83 47 0 15 -20 14 -64 -3 -23 -9 -78 50 -74 78 3 20 10 23 48 26 25 1 55 5 68
7 53 12 0 85 -63 85 -22 0 -41 -9 -59 -26z m91 -10 c3 -8 1 -20 -4 -25 -13
-13 -63 0 -63 16 0 26 57 34 67 9z"/>
<path d="M972 434 c-12 -8 -22 -10 -22 -5 0 13 -30 14 -49 2 -12 -8 -12 -12
-2 -25 19 -23 17 -147 -3 -158 -9 -5 -16 -16 -16 -23 0 -12 14 -15 59 -15 60
0 92 16 52 27 -28 7 -34 33 -26 104 l7 60 38 -6 c42 -7 55 3 45 35 -8 25 -51
27 -83 4z"/>
<path d="M1398 434 c-36 -19 -38 -54 -4 -54 16 0 27 7 31 20 8 24 40 27 49 4
14 -35 5 -50 -43 -72 -27 -13 -54 -34 -61 -47 -28 -52 25 -94 76 -60 23 15 27
15 43 1 22 -20 55 -20 72 0 10 13 10 17 -2 25 -8 5 -20 9 -28 9 -11 0 -12 14
-7 73 8 91 -6 117 -62 117 -20 -1 -49 -8 -64 -16z m72 -139 c0 -28 -21 -41
-44 -28 -14 8 -14 11 0 31 21 30 44 28 44 -3z"/>
<path d="M1785 425 c-42 -42 -34 -64 48 -128 19 -15 26 -28 22 -39 -12 -30
-38 -31 -62 -3 -25 28 -43 26 -43 -5 0 -44 92 -55 129 -16 21 22 22 28 12 59
-8 23 -24 41 -51 56 -46 26 -52 34 -44 55 8 20 53 21 60 1 9 -23 24 -18 24 9
0 42 -58 49 -95 11z"/>
</g>
</svg>
